<svg id="Layer_1" data-name="Layer 1" xmlns="http://www.w3.org/2000/svg" xmlns:xlink="http://www.w3.org/1999/xlink" viewBox="0 0 400 300" width="406" height="306" class="illustration styles_illustrationTablet__1DWOa"><defs><linearGradient id="linear-gradient" x1="292.87" y1="191.99" x2="299.95" y2="181.93" gradientUnits="userSpaceOnUse"><stop offset="0" stop-opacity="0"></stop><stop offset="0.99" stop-color="#005abf"></stop></linearGradient><linearGradient id="linear-gradient-2" x1="206.65" y1="251.69" x2="215.06" y2="239.74" xlink:href="#linear-gradient"></linearGradient><linearGradient id="linear-gradient-3" x1="75.59" y1="181.72" x2="81.23" y2="173.7" xlink:href="#linear-gradient"></linearGradient></defs><title>-</title><path d="M330.74,188.25,191.28,108.66,71.57,179.19l-.3-2.64-13.9-1.13v12.14l150.11,86.66c-1-.58,135.16-79.19,135.16-79.19V182.89Z" fill="#aed4ed"></path><path d="M57.37,175.42l150.11,86.66c-1-.58,135.16-79.19,135.16-79.19L191.28,96.53Z" fill="#d4e7f7"></path><ellipse cx="195.18" cy="178.21" rx="83.69" ry="49.77" fill="#191654"></ellipse><ellipse cx="195.18" cy="178.21" rx="83.69" ry="49.77" opacity="0.13"></ellipse><ellipse cx="193.42" cy="174.49" rx="21.37" ry="12.71" fill="#fff"></ellipse><path d="M150.94,163.84V172a.5.5,0,0,0,1,0v-8.16A.5.5,0,0,0,150.94,163.84Z" fill="#aed4ed"></path><ellipse cx="193.42" cy="174.49" rx="15.43" ry="9.18" fill="none" stroke="#e6e6e6" stroke-miterlimit="10"></ellipse><ellipse cx="193.37" cy="173.9" rx="6.63" ry="4.31" fill="#3b0459"></ellipse><path d="M169.36,181.78s5.85,8.08,21.7,7.84l-4.32,34.61s-38.34-.49-60-23.16Z" fill="#fff" opacity="0.18"></path><path d="M193.37,159s15-.59,19.83,7.5l37.27-23.18s-24.65-15.21-63.73-11.86Z" fill="#fff" opacity="0.18"></path><path d="M97.53,94.69v23.24c0,.05-1.54.62-1.65.67a10,10,0,0,0-3.15,2.2c-2.48,2.75-.8,7.3,3,7.1,4-.21,4.94-4.51,5.16-7.81V96.53l15.65-8.19V84.2Z" fill="#3b0459"></path><path d="M113.18,85.9v19.33c0,.05-1.54.62-1.65.67a10,10,0,0,0-3.15,2.2c-2.48,2.75-.8,7.3,3,7.1,4-.21,4.94-4.51,5.16-7.81V85C115.4,85.26,114.28,85.56,113.18,85.9Z" fill="#3b0459"></path><path d="M145.14,62.62V91.22c0,.07-1.9.76-2,.82a12.34,12.34,0,0,0-3.88,2.71c-3.05,3.38-1,9,3.68,8.74,4.88-.26,6.08-5.55,6.36-9.61v-29l19.26-10.07v-5.1Z" fill="#3b0459"></path><path d="M164.4,51.81V75.59c0,.07-1.9.76-2,.82a12.34,12.34,0,0,0-3.88,2.71c-3.05,3.38-1,9,3.68,8.74,4.88-.26,6.08-5.55,6.36-9.61V50.71C167.14,51,165.76,51.39,164.4,51.81Z" fill="#3b0459"></path><path d="M217.85,81.24a.63.63,0,0,0-.72-.82l-.8.13s0,0,0-.06a.69.69,0,0,0,.11-.52.63.63,0,0,0-.6-1,42.73,42.73,0,0,1-11.79.6c-.75-.06-1.53-.16-2.29-.15l-1.69-.14h0l-.43,0c-.79,0-.79,1.2,0,1.22h0a.72.72,0,0,0,.58.49l.69.06a.72.72,0,0,0,.06.58.5.5,0,0,0,.16.19.63.63,0,0,0,.32.14l.19,0a36,36,0,0,0,5.1.75,5.12,5.12,0,0,0-1.81,1.88.62.62,0,0,0,.84.84c1.41-.78,2.85-1.49,4.32-2.14a15.4,15.4,0,0,0,8-.81C218.8,82.17,218.53,81.07,217.85,81.24Z" fill="#ef986c"></path><circle cx="235.51" cy="55.31" r="2.54" fill="#f7931e"></circle><path d="M203.1,148.71c-.72.67-3.62,1.86-3.13,4.51.63,3.39,7.81,2.06,7.81,2.06l8.91-3.57,8.37-12.14-7-2.39-6.36,9.23" fill="#d4e7f7"></path><path d="M218.08,137.18c-.27.57-6.07,7.33-7.48,8.27s-7.15,2.21-7.5,3.26,3,4.32,3,4.32,8.06-2,9.33-2.95a12.29,12.29,0,0,0,2.13-2l6.4-9.28" fill="#2a343d"></path><path d="M237.12,159.36c-.21,1-1.93,3.59,0,5.49,2.44,2.43,7.6-2.74,7.6-2.74l5.31-8V139.36l-7.11,2v11.21" fill="#d4e7f7"></path><path d="M242.9,141.36c.11.62-.83,9.48-1.47,11.06s-4.63,5.88-4.32,6.94,5,1.83,5,1.83,5.48-6.25,6-7.72a12.29,12.29,0,0,0,.63-2.84V139.36" fill="#2a343d"></path><path d="M239.08,84.67S229.5,105.32,227.46,109c-1.71,3.1-13.06,27.55-16.69,35.39a12.43,12.43,0,0,0,10.63,3.47l26-49.62,4.83-14Z" fill="#fdece2"></path><path d="M254.68,99.4c.35-6.23-.55-12.48-1.47-18.66-.58-1.92-1-3.37-1-3.37L243,90.4s-8.46,28.47-6.56,32.5,3.75,27.88,3.75,27.88,6.2,4.74,9.63-1.8c.9-1.72-.54-28.37-.54-28.37S252.65,108.54,254.68,99.4Z" fill="#fdece2"></path><path d="M239.13,59.8c-.54.13-4.95.75-7,3.78s-5.31,10-7.29,11.6-12,3-12,3-1.1,5,.5,6.92,13.59-1.33,16.3-1.94S240.4,70.66,240.4,70.66" fill="#191654"></path><path d="M244.27,78.87q.92-.06,1.83-.16c-1.87-8-7.51-25.55-8.64-.25A23.28,23.28,0,0,0,244.27,78.87Z" fill="#35406e"></path><path d="M251.41,61.8c-1.38-.57-4.39-2.2-6.14-2.17a55,55,0,0,0-8.28.66c-3.42,3.53-2,11.34-1.35,15.44.6,3.81,1.55,7.54,2.43,11.28,4.45,2.4,12.58-.06,15.77-1.29A108.93,108.93,0,0,0,251.41,61.8Z" fill="#191654"></path><path d="M245.17,47.32a2.5,2.5,0,0,0-3.16-.23.48.48,0,0,0-.1-.11c-.76-.58-1.18-1.26-2.21-1.37a5.31,5.31,0,0,0-2.73.58,3.4,3.4,0,0,0-1.79,1.87.42.42,0,0,0-.26,0,3.74,3.74,0,0,0-2.87,4.37c.37,1.65,2,3.28,3.75,3.1a6.24,6.24,0,0,0,2.63-.11,1.06,1.06,0,0,0,.44-1.8l.11-.1.1,0a.86.86,0,0,0,1.17-.06l.13-.11A3,3,0,0,0,241,53l.25,0,0,.26a1,1,0,0,0,.64,1,1.56,1.56,0,0,0,.61,0,5.39,5.39,0,0,1-1.47,1.9c-.86.64-.1,1.8.76,1.72-.36.38.13,2.26.57,1.9a10.12,10.12,0,0,0,3.78-7.27C246.18,51.31,246.23,48.26,245.17,47.32Z" fill="#2a343d"></path><path d="M234.62,53.14c-.25,0,1.15,8.11,4.57,8.07,4.3,0,5-5.3,5-5.3s0-3.79-2.85-4.57S237.71,53.16,234.62,53.14Z" fill="#ef986c"></path><path d="M234.62,53.14s3.41,0,5.07-.88.11,5.2,1.42,5,.69-3.29,1.89-2.31-.69,5-.69,5,3.25-2.41,3.53-5.62-4.14-5.45-7.85-4.49S234.62,53.14,234.62,53.14Z" fill="#2a343d"></path><path d="M237.94,122.35c-.29-4.64,1.14-9.44,2-14L242.7,94c.15-.77-1-1.1-1.18-.33l-2.75,14.36c-.82,4.28-2.12,8.74-2.1,13.13s1.21,8.63,1.82,12.88c.74,5.14,1.25,10.3,1.6,15.48.05.78,1.28.79,1.22,0-.31-4.65-.76-9.29-1.38-13.91C239.35,131.22,238.21,126.78,237.94,122.35Z" fill="#2a343d"></path><path d="M246.93,58.36s-.06-4.25-.57-4.17-.65,1.68-.78,2.61l-.69-1.7s-1.25-2.22-2.16-2-.9,3.57-.94,4.24,2.9,3.88,2.9,3.88l1.08-1.6.09.72Z" fill="#ef986c"></path><path d="M246.93,58.36c1.06-.57,13.24,11.4,11.42,16.79s-16.57-8.66-16.57-8.66S244.44,59.68,246.93,58.36Z" fill="#191654"></path><circle cx="243.58" cy="54.42" r="2.54" fill="#f7931e"></circle><path d="M239.61,46c-3.23-.49-4.68,1-5.33,2.23h.07A5.73,5.73,0,0,1,235,48a.78.78,0,0,1,.18,0,3.9,3.9,0,0,1,1.8-.64c5.25.17,5.69,5.87,5.69,5.87l1.65-.06S244.82,46.8,239.61,46Z" fill="#f7931e"></path><path d="M241.78,66.49s6.67,7.62,11.66,8.91v6.81S244.37,71.77,241.78,66.49Z" fill="#4dc7db"></path><polyline points="319.68 184.71 295.97 198.5 275.92 185.26 294.65 173.9" opacity="0.32" fill="url(#linear-gradient)"></polyline><path d="M316.53,159.5c-.74-1.58-4-2.78-7.91-2.78s-7.34,1.26-8,2.9c-4.6,6.44-9.13,16.93-3.47,24a14.42,14.42,0,0,0,11.11,5H309a14.42,14.42,0,0,0,11.11-5C325.79,176.51,321.16,165.93,316.53,159.5Z" fill="#191654"></path><ellipse cx="308.62" cy="160.18" rx="8.07" ry="3.46" opacity="0.5"></ellipse><path d="M318,130.82a66.77,66.77,0,0,0-9,27.66,193.12,193.12,0,0,0-3.24-35.21c-.08-.41-.71-.24-.63.17a192.2,192.2,0,0,1,3.18,39.39.31.31,0,0,0,.41.3c0,.1,0,.19,0,.29a.33.33,0,0,0,.65,0,66.08,66.08,0,0,1,9.16-32.27A.33.33,0,0,0,318,130.82Z" fill="#fe6162"></path><path d="M312.94,141.56s5-16.06,15.71-22c0,0-2.17,3.19-1.16,5.79s2.61,7.24-2.46,9.85-8,0-7.53,5.07,2.44,7.53-.81,10-6,4.61-7.1,9.91C309.59,160.18,310.82,146.9,312.94,141.56Z" fill="#fe6162"></path><path d="M308.18,139.87s-2.08-24.67-6.42-30.91a11.47,11.47,0,0,1-1.22,6.94c-1.88,3.57-3.9,4.81-2.81,9.46s5.49,3.72,5.07,8.37-4.1,3.77-2.26,9.64,8.09,9.73,8.09,9.73" fill="#fe6162"></path><polyline points="231.6 238.19 202.81 254.2 193.41 248.54 220.83 233.5" opacity="0.32" fill="url(#linear-gradient-2)"></polyline><polyline points="219.63 231.86 219.63 235.75 233.26 235.75 233.26 231.86" fill="#3b0459"></polyline><ellipse cx="226.45" cy="235.75" rx="6.81" ry="3.89" fill="#3b0459"></ellipse><ellipse cx="226.45" cy="231.86" rx="6.81" ry="3.89" fill="#9b6d9c"></ellipse><polyline points="205.33 239.68 205.33 243.57 218.95 243.57 218.95 239.68" fill="#3b0459"></polyline><ellipse cx="212.14" cy="243.57" rx="6.81" ry="3.89" fill="#3b0459"></ellipse><ellipse cx="212.14" cy="239.68" rx="6.81" ry="3.89" fill="#9b6d9c"></ellipse><polyline points="94.1 173.9 78.23 185.6 64.94 178.37 83.67 167.01" opacity="0.32" fill="url(#linear-gradient-3)"></polyline><ellipse cx="86.82" cy="171.75" rx="7.84" ry="4.05" fill="#aed4ed"></ellipse><ellipse cx="86.82" cy="163.09" rx="7.84" ry="4.05" fill="#aed4ed"></ellipse><polyline points="78.98 163.09 78.98 171.75 94.67 171.75 94.67 163.09" fill="#aed4ed"></polyline><rect x="86.7" y="158.65" width="67.61" height="6.28" fill="#fad0a0"></rect><path d="M154.3,158.65s3.47,3.18,0,6.28" fill="#fad0a0"></path><path d="M86.7,158.65s-2.91,3.91,0,6.28" fill="#fad0a0"></path></svg>